<svg fill="none" height="20" viewBox="0 0 20 20" width="20" xmlns="http://www.w3.org/2000/svg"><path clip-rule="evenodd" d="m4.50022 5.00124c-.1326 0-.25977.05267-.35354.14643-.09376.09376-.14644.22092-.14644.35351s.05268.25975.14644.35351c.09377.09375.22094.14643.35354.14643h4.99973c.13261 0 .25978-.05268.35354-.14643.09376-.09376.14644-.22092.14644-.35351s-.05268-.25975-.14644-.35351-.22093-.14643-.35354-.14643zm0 2.99962c-.1326 0-.25977.05267-.35354.14643-.09376.09376-.14644.22092-.14644.35351s.05268.25975.14644.35351c.09377.09376.22094.14643.35354.14643h4.99973c.13261 0 .25978-.05267.35354-.14643s.14644-.22092.14644-.35351-.05268-.25975-.14644-.35351-.22093-.14643-.35354-.14643zm-.49998 3.49954c0-.1326.05268-.2597.14644-.3535.09377-.0937.22094-.1464.35354-.1464h4.99973c.13261 0 .25978.0527.35354.1464.09376.0938.14644.2209.14644.3535s-.05268.2598-.14644.3535c-.09376.0938-.22093.1465-.35354.1465h-4.99973c-.1326 0-.25977-.0527-.35354-.1465-.09376-.0937-.14644-.2209-.14644-.3535zm.49998 2.4997c-.1326 0-.25977.0527-.35354.1464-.09376.0938-.14644.221-.14644.3535 0 .1326.05268.2598.14644.3536.09377.0937.22094.1464.35354.1464h4.99973c.13261 0 .25978-.0527.35354-.1464.09376-.0938.14644-.221.14644-.3536 0-.1325-.05268-.2597-.14644-.3535-.09376-.0937-.22093-.1464-.35354-.1464zm6.64568.146 1.9999-1.9998c.0464-.0465.1016-.0835.1623-.1087.0608-.0252.1259-.0381.1916-.0381.0658 0 .1309.0129.1917.0381.0607.0252.1159.0622.1623.1087l1.9999 1.9998c.0939.0939.1466.2212.1466.3539 0 .1328-.0527.2601-.1466.354s-.2212.1466-.354.1466c-.1327 0-.2601-.0527-.3539-.1466l-1.646-1.6468-1.6459 1.6468c-.0939.0939-.2212.1466-.354.1466-.1327 0-.2601-.0527-.3539-.1466-.0939-.0939-.1467-.2212-.1467-.354 0-.1327.0528-.26.1467-.3539zm2.7078-6.29122c-.0464.04656-.1016.0835-.1623.1087-.0608.0252-.1259.03818-.1917.03818-.0657 0-.1308-.01298-.1916-.03818-.0607-.0252-.1159-.06214-.1623-.1087l-1.9999-1.99975c-.0465-.04648-.0834-.10166-.1085-.16239-.0252-.06073-.0382-.12583-.0382-.19156 0-.06574.013-.13083.0382-.19156.0251-.06073.062-.11591.1085-.1624.0938-.09387.2212-.14661.3539-.14661.0658 0 .1309.01295.1916.0381.0608.02516.1159.06203.1624.10851l1.6459 1.6468 1.646-1.6468c.0938-.09387.2212-.14661.3539-.14661.1328 0 .2601.05274.354.14661.0939.09388.1466.2212.1466.35396s-.0527.26008-.1466.35395z" fill="#1e1e1e" fill-rule="evenodd"/></svg>