<svg fill="none" height="20" viewBox="0 0 20 20" width="20" xmlns="http://www.w3.org/2000/svg"><path clip-rule="evenodd" d="m11.4375 3.875c0-1.03553-.8394-1.875-1.87499-1.875-1.03553 0-1.875.83947-1.875 1.875h-3.75001c-.51777 0-.9375.41973-.9375.9375v3.75c1.03554 0 1.875.83947 1.875 1.875 0 1.0355-.83946 1.875-1.875 1.875v3.75c0 .5178.41973.9375.9375.9375h11.25c.5178 0 .9375-.4197.9375-.9375v-3.75c1.0356 0 1.875-.8395 1.875-1.875 0-1.03552-.8394-1.87498-1.875-1.875v-3.75c0-.51777-.4197-.9375-.9375-.9375zm-7.03125 9.528v2.1908h10.31255v-10.31255h-10.31255v2.19076c1.10857.52663 1.87501 1.65655 1.87501 2.96549 0 1.3089-.76644 2.4389-1.87501 2.9655z" fill="#1e1e1e" fill-rule="evenodd"/></svg>