<svg width="20" height="20" viewBox="0 0 20 20" fill="none" xmlns="http://www.w3.org/2000/svg">
<path fill-rule="evenodd" clip-rule="evenodd" d="M11.4375 3.875C11.4375 2.83947 10.5981 2 9.56251 2C8.52698 2 7.68751 2.83947 7.68751 3.875H3.9375C3.41973 3.875 3 4.29473 3 4.8125V8.5625C4.03554 8.5625 4.875 9.40197 4.875 10.4375C4.875 11.473 4.03554 12.3125 3 12.3125V16.0625C3 16.5803 3.41973 17 3.9375 17H15.1875C15.7053 17 16.125 16.5803 16.125 16.0625V12.3125C17.1606 12.3125 18 11.473 18 10.4375C18 9.40198 17.1606 8.56252 16.125 8.5625V4.8125C16.125 4.29473 15.7053 3.875 15.1875 3.875H11.4375ZM4.40625 13.403V15.5938H14.7188V5.28125H4.40625V7.47201C5.51482 7.99864 6.28126 9.12856 6.28126 10.4375C6.28126 11.7464 5.51482 12.8764 4.40625 13.403Z" fill="#1E1E1E"/>
</svg>
