<svg fill="none" height="20" viewBox="0 0 20 20" width="20" xmlns="http://www.w3.org/2000/svg"><path d="m3.75642 15.5834c-.36542 0-.68007-.132-.94396-.3959s-.39583-.5785-.39583-.9439v-8.48712c0-.37514.13194-.69222.39583-.95125s.57854-.38854.94396-.38854h4.07521l2 2h6.41187c.3751 0 .6922.12951.9513.38854.259.25903.3885.57611.3885.95125v6.48712c0 .3654-.1295.68-.3885.9439-.2591.2639-.5762.3959-.9513.3959zm0-1.0834h12.48708c.0749 0 .1363-.024.1844-.0721.048-.048.0721-.1095.0721-.1843v-6.48712c0-.07486-.0241-.13632-.0721-.18438-.0481-.04805-.1095-.07208-.1844-.07208h-6.86062l-2-2h-3.62646c-.07486 0-.13632.02403-.18438.07208-.04805.04806-.07208.10952-.07208.18438v8.48712c0 .0748.02403.1363.07208.1843.04806.0481.10952.0721.18438.0721z" fill="#1e1e1e"/></svg>