<svg fill="none" height="20" viewBox="0 0 20 20" width="20" xmlns="http://www.w3.org/2000/svg"><path clip-rule="evenodd" d="m10.0074 1c-4.98084 0-9.0074 4.12498-9.0074 9.2281 0 4.0793 2.57996 7.5323 6.15904 8.7544.44748.0919.61139-.1986.61139-.4429 0-.2139-.01475-.9472-.01475-1.7113-2.50566.5501-3.02744-1.1-3.02744-1.1-.40267-1.0695-.99931-1.3444-.99931-1.3444-.8201-.5653.05974-.5653.05974-.5653.9097.0611 1.38705.9472 1.38705.9472.80517 1.4055 2.10261 1.0084 2.62458.7639.07448-.5959.31325-1.0084.56676-1.2375-1.99843-.2139-4.10104-1.0084-4.10104-4.55305 0-1.00837.35768-1.83337.92445-2.47499-.08942-.22912-.40267-1.17656.08961-2.44461 0 0 .76054-.2445 2.47541.94724.7342-.202 1.49136-.30476 2.25191-.30562.7606 0 1.5359.10706 2.2518.30562 1.7151-1.19174 2.4756-.94724 2.4756-.94724.4923 1.26805.1789 2.21549.0894 2.44461.5817.64162.9247 1.46662.9247 2.47499 0 3.54465-2.1026 4.32375-4.116 4.55305.3282.2902.6114.8402.6114 1.7111 0 1.2375-.0148 2.2307-.0148 2.5361 0 .2445.1641.535.6114.4433 3.5791-1.2225 6.1591-4.6753 6.1591-8.7546.0147-5.10312-4.0266-9.2281-8.9926-9.2281z" fill="#1e1e1e" fill-rule="evenodd"/></svg>