<svg fill="none" height="20" viewBox="0 0 20 20" width="20" xmlns="http://www.w3.org/2000/svg"><path d="m9.45842 13.7917h1.08328v-4.79168h-1.08328zm.53729-6.05126c.16579 0 .30629-.05611.42149-.16834.1151-.11222.1727-.25125.1727-.41708s-.0561-.30632-.1684-.42146c-.1122-.115-.2512-.1725-.417-.1725-.16588 0-.30636.05604-.4215.16813-.11514.11222-.17271.25125-.17271.41708s.05611.30632.16833.42146c.11223.11514.25125.17271.41709.17271zm.01149 9.84296c-1.04323 0-2.02573-.1974-2.94754-.5921-.9218-.3948-1.72861-.9379-2.42041-1.6294-.69181-.6915-1.23521-1.4977-1.63021-2.4185-.39486-.9207-.59229-1.9046-.59229-2.9515 0-1.04695.19736-2.02785.59208-2.94271s.93785-1.7182 1.62938-2.41c.69152-.69181 1.4977-1.23521 2.41854-1.63021.92069-.39486 1.90451-.59229 2.95145-.59229 1.047 0 2.0279.19736 2.9427.59208.9149.39472 1.7182.93785 2.41 1.62938.6918.69152 1.2352 1.49604 1.6302 2.41354.3949.91764.5923 1.89805.5923 2.94125 0 1.04316-.1973 2.02566-.5921 2.94746-.3947.9218-.9378 1.7286-1.6293 2.4205-.6916.6918-1.4961 1.2352-2.4136 1.6302-.9176.3948-1.898.5923-2.9412.5923zm-.0071-1.0834c1.8055 0 3.3403-.6319 4.6041-1.8958 1.2639-1.2639 1.8959-2.7986 1.8959-4.6042 0-1.80553-.632-3.34026-1.8959-4.60415-1.2638-1.26389-2.7986-1.89583-4.6041-1.89583-1.80557 0-3.3403.63194-4.60419 1.89583-1.26388 1.26389-1.89583 2.79862-1.89583 4.60415 0 1.8056.63195 3.3403 1.89583 4.6042 1.26389 1.2639 2.79862 1.8958 4.60419 1.8958z" fill="#1e1e1e"/></svg>