<svg fill="none" height="20" viewBox="0 0 20 20" width="20" xmlns="http://www.w3.org/2000/svg"><path d="m9.99216 16.5834v-1.0834h5.25144c.0642 0 .1229-.0267.1763-.0802.0534-.0533.0802-.1121.0802-.1762v-10.48712c0-.06417-.0268-.12292-.0802-.17625-.0534-.05347-.1121-.08021-.1763-.08021h-5.25144v-1.08333h5.25144c.3752 0 .6922.12951.9513.38854.259.25903.3885.57611.3885.95125v10.48712c0 .3751-.1295.6922-.3885.9512-.2591.259-.5761.3886-.9513.3886zm-.96312-3.6923-.78208-.7582 1.59125-1.5912h-6.42146v-1.08335h6.42146l-1.59125-1.59125.78208-.75812 2.89086 2.89102z" fill="#1e1e1e"/></svg>