<svg width="20" height="20" viewBox="0 0 20 20" fill="none" xmlns="http://www.w3.org/2000/svg">
<path d="M16.2726 17.8204L14.0674 15.5833H5.00008C3.99716 15.5833 3.14918 15.2369 2.45612 14.544C1.76321 13.8509 1.41675 13.0029 1.41675 12C1.41675 10.9711 1.78321 10.1068 2.51612 9.40708C3.24904 8.70721 4.10425 8.36798 5.08175 8.38937C5.11203 8.19159 5.16633 7.97173 5.24466 7.72978C5.32314 7.48798 5.42112 7.27353 5.53862 7.08645L2.48404 4.03208L3.25821 3.25812L17.0465 17.0465L16.2726 17.8204ZM5.00008 14.5H12.968L6.36862 7.90062C6.26501 8.11853 6.17425 8.36402 6.09633 8.63708C6.01828 8.90999 5.95147 9.1768 5.89591 9.43749L4.83341 9.52083C4.16675 9.57638 3.61119 9.83805 3.16675 10.3058C2.7223 10.7736 2.50008 11.3383 2.50008 12C2.50008 12.6904 2.74411 13.2797 3.23216 13.7679C3.72036 14.256 4.30966 14.5 5.00008 14.5ZM17.2115 15.0865L16.412 14.2917C16.7207 14.1197 16.9792 13.8761 17.1876 13.5608C17.3959 13.2455 17.5001 12.8919 17.5001 12.5C17.5001 11.94 17.3067 11.4667 16.9201 11.08C16.5334 10.6933 16.0601 10.5 15.5001 10.5H14.1251L14.0001 9.14583C13.9029 8.11805 13.4723 7.25346 12.7084 6.55208C11.9445 5.85069 11.0402 5.49999 9.9955 5.49999C9.65564 5.49999 9.32842 5.54166 9.01383 5.62499C8.69911 5.70833 8.39591 5.82638 8.10425 5.97916L7.3255 5.19228C7.76994 4.93589 8.20494 4.74256 8.6305 4.61228C9.05619 4.48187 9.51272 4.41666 10.0001 4.41666C11.3145 4.41666 12.4591 4.85888 13.4338 5.74333C14.4086 6.62777 14.9584 7.71333 15.0834 8.99999V9.41666H15.3399C16.232 9.37388 16.9956 9.65409 17.6307 10.2573C18.2658 10.8603 18.5834 11.6079 18.5834 12.5C18.5834 13.0171 18.4654 13.4989 18.2292 13.9454C17.9931 14.3921 17.6539 14.7724 17.2115 15.0865Z" fill="#1E1E1E"/>
</svg>
