<svg fill="none" height="20" viewBox="0 0 20 20" width="20" xmlns="http://www.w3.org/2000/svg"><path d="m4.75654 16.5834c-.37514 0-.69222-.1296-.95125-.3886s-.38854-.5761-.38854-.9512v-10.48712c0-.37514.12951-.69222.38854-.95125s.57611-.38854.95125-.38854h4.92292v1.08333h-4.92292c-.06417 0-.12292.02674-.17625.08021-.05347.05333-.08021.11208-.08021.17625v10.48712c0 .0641.02674.1229.08021.1762.05333.0535.11208.0802.17625.0802h10.48706c.0642 0 .1229-.0267.1763-.0802.0534-.0533.0802-.1121.0802-.1762v-4.923h1.0833v4.923c0 .3751-.1295.6922-.3885.9512-.2591.259-.5761.3886-.9513.3886zm3.32208-3.888-.77396-.7739 7.42144-7.42148h-2.726v-1.08333h4.5833v4.58333h-1.0833v-2.72604z" fill="#1e1e1e"/></svg>