<svg fill="none" height="20" viewBox="0 0 20 20" width="20" xmlns="http://www.w3.org/2000/svg"><path d="m10.0321 15.5834c-1.55045 0-2.86858-.5429-3.95441-1.6286-1.08597-1.0857-1.62896-2.4035-1.62896-3.9535 0-1.55003.54299-2.86829 1.62896-3.95482 1.08583-1.08653 2.40396-1.62979 3.95441-1.62979.9187 0 1.7609.20618 2.5264.61854.7654.4125 1.4019.95791 1.9094 1.63625v-2.25479h1.0833v4.26271h-4.2627v-1.08313h2.5209c-.3975-.63792-.9267-1.14674-1.5875-1.52646-.6607-.37986-1.3907-.56979-2.1898-.56979-1.25004 0-2.31254.4375-3.18754 1.3125s-1.3125 1.9375-1.3125 3.18748c0 1.25.4375 2.3125 1.3125 3.1875s1.9375 1.3125 3.18754 1.3125c1.1666 0 2.1666-.3854 3-1.1562.8333-.7709 1.3125-1.7188 1.4375-2.8438h1.1089c-.1143 1.4434-.6995 2.6514-1.7556 3.6242s-2.3197 1.4592-3.7908 1.4592z" fill="#000"/></svg>