<svg fill="none" height="20" viewBox="0 0 20 20" width="20" xmlns="http://www.w3.org/2000/svg"><path d="m10.0072 17.5834c-1.04323 0-2.02573-.1974-2.94754-.5921-.9218-.3948-1.72861-.9379-2.42041-1.6294-.69181-.6915-1.23521-1.4977-1.63021-2.4185-.39486-.9207-.59229-1.9046-.59229-2.9515 0-1.04695.19736-2.02785.59208-2.94271s.93785-1.7182 1.62938-2.41c.69152-.69181 1.4977-1.23521 2.41854-1.63021.92069-.39486 1.90451-.59229 2.95145-.59229 1.047 0 2.0279.19736 2.9427.59208.9149.39472 1.7182.93785 2.41 1.62938.6918.69152 1.2352 1.49604 1.6302 2.41354.3949.91764.5923 1.89805.5923 2.94125 0 1.04316-.1973 2.02566-.5921 2.94746-.3947.9218-.9378 1.7286-1.6293 2.4205-.6916.6918-1.4961 1.2352-2.4136 1.6302-.9176.3948-1.898.5923-2.9412.5923zm.5345-1.1011c1.6571-.1462 3.0644-.8312 4.2219-2.055 1.1577-1.2237 1.7365-2.6995 1.7365-4.4273 0-1.72776-.5761-3.20081-1.7284-4.41915-1.1522-1.21847-2.5622-1.90618-4.23-2.06312z" fill="#1e1e1e"/></svg>