<svg width="20" height="20" viewBox="0 0 20 20" fill="none" xmlns="http://www.w3.org/2000/svg">
<path d="M10.1667 17.5833L13.649 8.50001H14.9086L18.3911 17.5833H17.1698L16.2677 15.1458H12.29L11.3877 17.5833H10.1667ZM3.52878 15.1315L2.77565 14.3573L6.71149 10.4552C6.2169 9.92744 5.73565 9.35744 5.26774 8.74522C4.79968 8.133 4.43267 7.54432 4.1667 6.97918H5.45024C5.66288 7.38626 5.9276 7.79682 6.2444 8.21085C6.56121 8.62474 6.96107 9.10092 7.44399 9.63939C8.10524 8.91717 8.67545 8.22675 9.15461 7.56814C9.63378 6.90953 9.99628 6.22015 10.2421 5.50001H1.5769V4.41668H6.95836V2.7373H8.0417V4.41668H13.4232V5.50001H11.4246C11.1543 6.39418 10.7375 7.23015 10.174 8.00793C9.61038 8.78571 8.94447 9.59612 8.17628 10.4392L10.1282 12.3781L9.69711 13.4952L7.44399 11.2419L3.52878 15.1315ZM12.6698 14.1233H15.8877L14.3204 9.88939L12.6698 14.1233Z" fill="#1E1E1E"/>
</svg>
