<svg width="128" height="128" viewBox="0 0 128 128" fill="none" xmlns="http://www.w3.org/2000/svg">
<rect width="128" height="128" rx="24" fill="#1E1E1E"/>
<path d="M36.8125 42.4167H57.068V47.0537H36.8125V42.4167ZM7 47.0537V42.4167H23.6612L43.1978 80.9463H57.068V85.5833H40.4069L20.8702 47.0537H7Z" fill="white"/>
<path fill-rule="evenodd" clip-rule="evenodd" d="M76.0046 52.4111C72.1399 49.9452 69.585 45.6759 69.585 40.8221C69.585 33.1884 75.9047 27 83.7004 27H107.885C115.68 27 122 33.1884 122 40.8221C122 45.6759 119.445 49.9452 115.58 52.4111C119.445 54.877 122 59.1465 122 64.0001C122 71.6338 115.68 77.8222 107.885 77.8222H107.627C103.942 77.8222 100.587 76.4394 98.0731 74.1748V87.0519C98.0731 94.7709 91.6151 101 83.7644 101C75.9847 101 69.585 94.8273 69.585 87.1779C69.585 82.3243 72.1398 78.0549 76.0043 75.589C72.1398 73.1231 69.585 68.8538 69.585 64.0001C69.585 59.1465 72.1399 54.877 76.0046 52.4111ZM98.0731 64.0001C98.0731 69.1672 102.351 73.3558 107.627 73.3558H107.885C113.161 73.3558 117.439 69.1672 117.439 64.0001C117.439 58.8331 113.161 54.6444 107.885 54.6444H107.627C102.351 54.6444 98.0731 58.8331 98.0731 64.0001ZM93.5119 54.6444H83.7004C78.4237 54.6444 74.1462 58.8331 74.1462 64.0001C74.1462 69.1567 78.4065 73.3388 83.6683 73.3558H83.6833H93.5119V54.6444ZM83.7004 77.8222C83.6897 77.8222 83.679 77.8222 83.6683 77.8222C78.4065 77.8391 74.1462 82.0213 74.1462 87.1779C74.1462 92.3293 78.4717 96.5336 83.7644 96.5336C89.1281 96.5336 93.5119 92.2729 93.5119 87.0519V77.8222H83.7004ZM93.5119 50.1778H83.7004C78.4237 50.1778 74.1462 45.9891 74.1462 40.8221C74.1462 35.655 78.4237 31.4664 83.7004 31.4664H93.5119V50.1778ZM107.885 50.1778H98.0731V31.4664H107.885C113.161 31.4664 117.439 35.655 117.439 40.8221C117.439 45.9891 113.161 50.1778 107.885 50.1778Z" fill="white"/>
</svg>
