<svg fill="none" height="96" viewBox="0 0 64 96" width="64" xmlns="http://www.w3.org/2000/svg"><path d="m0 80c0-8.8365 7.16352-16 16-16h16v16c0 8.8365-7.1635 16-16 16-8.83648 0-16-7.1635-16-16z" fill="#24cb71"/><path d="m32 0v32h16c8.8365 0 16-7.1635 16-16 0-8.83648-7.1635-16-16-16z" fill="#ff7237"/><path d="m48 64c8.8366 0 16-7.1634 16-16s-7.1634-16-16-16-16 7.1634-16 16 7.1634 16 16 16z" fill="#00b6ff"/><path d="m0 16c0 8.8365 7.16352 16 16 16h16v-32h-16c-8.83648 0-16 7.16352-16 16z" fill="#ff3737"/><path d="m0 48c0 8.8365 7.16352 16 16 16h16v-32h-16c-8.83648 0-16 7.1635-16 16z" fill="#874fff"/></svg>