<svg fill="none" height="20" viewBox="0 0 20 20" width="20" xmlns="http://www.w3.org/2000/svg"><path d="m6.75654 16.5834c-.36972 0-.68549-.1309-.94729-.3925-.26167-.2618-.3925-.5776-.3925-.9473v-9.74358h-1v-1.08333h3.58333v-.90375h4.00002v.90375h3.5833v1.08333h-1v9.73458c0 .3853-.1295.7064-.3885.9633-.2591.257-.5761.3855-.9513.3855zm6.74356-11.08338h-7.00002v9.74358c0 .0748.02403.1363.07208.1843.04806.0481.10952.0721.18438.0721h6.48706c.0642 0 .1229-.0267.1763-.0802.0534-.0533.0802-.1121.0802-.1762zm-5.16335 8.49998h1.08312v-6.99998h-1.08312zm2.24355 0h1.0831v-6.99998h-1.0831z" fill="#1e1e1e"/></svg>