<svg fill="none" height="20" viewBox="0 0 20 20" width="20" xmlns="http://www.w3.org/2000/svg"><path d="m5.75058 17.5834c-.37541 0-.69159-.1296-.94854-.3886-.25694-.259-.38541-.5761-.38541-.9512v-12.48712c0-.37514.12951-.69222.38854-.95125s.57611-.38854.95125-.38854h6.45188l3.375 3.375v10.45191c0 .3751-.1296.6922-.3888.9512-.2591.259-.5764.3886-.9518.3886zm5.66602-11.00005v-3.08333h-5.66018c-.06417 0-.12292.02674-.17625.08021-.05347.05333-.08021.11208-.08021.17625v12.48712c0 .0641.02674.1229.08021.1762.05333.0535.11208.0802.17625.0802h8.48708c.0642 0 .1229-.0267.1763-.0802.0534-.0533.0802-.1121.0802-.1762v-9.66025z" fill="#1e1e1e"/></svg>