<svg fill="none" height="20" viewBox="0 0 20 20" width="20" xmlns="http://www.w3.org/2000/svg"><path d="m4.49996 15.5h.92625l8.19709-8.19706-.9263-.92625-8.19704 8.19711zm-1.08333 1.0834v-2.4663l10.36707-10.38312c.1121-.11445.2327-.1959.3619-.24438.1292-.04861.2645-.07291.406-.07291.1417 0 .2769.02271.4057.06812.1288.04542.2536.12583.3743.24125l.9344.92625c.1154.1207.1972.2457.2452.375.0481.12931.0721.26243.0721.39938 0 .14597-.0253.28527-.0758.41791-.0507.13264-.1312.25389-.2415.36375l-10.38312 10.37505zm9.73537-9.73546-.455-.47125.9263.92625z" fill="#1e1e1e"/></svg>