<svg fill="none" height="20" viewBox="0 0 20 20" width="20" xmlns="http://www.w3.org/2000/svg"><path d="m3.70841 15.5834c-.39097 0-.70402-.1257-.93916-.3769-.235-.2511-.3525-.5563-.3525-.9156v-8.54025c0-.35931.12555-.67146.37666-.93646.25112-.265.57216-.3975.96313-.3975h4.07521l2 2h6.43275c.3451 0 .625.10312.8397.30937.2148.20611.3574.4641.428.77396h-8.12837l-2-2h-3.64729c-.07486 0-.13632.02403-.18438.07208-.04805.04806-.07208.10952-.07208.18438v8.48712c0 .0587.01472.1068.04417.1441.0293.0375.06798.0696.11604.0963l1.56896-5.32377h14.00645l-1.6427 5.51287c-.0951.2713-.2142.4908-.3573.6586-.1432.1678-.367.2517-.6715.2517zm1.07375-1.0834h11.71314l1.3012-4.2564h-11.75475z" fill="#1e1e1e"/></svg>