<svg fill="none" height="20" viewBox="0 0 20 20" width="20" xmlns="http://www.w3.org/2000/svg"><path d="m9.22126 12.3077c0-.8184.10868-1.4781.32604-1.9792s.6642-1.04276 1.3406-1.62499c.5652-.4925.9412-.90569 1.1282-1.23958.1869-.33389.2804-.70597.2804-1.11625 0-.61319-.2195-1.11931-.6586-1.51833-.4391-.39903-1.0012-.59854-1.68602-.59854-.51916 0-.98791.13562-1.40625.40687-.41819.27139-.73736.69826-.9575 1.28063l-1.375-.585c.32375-.82584.82563-1.45646 1.50563-1.89188.68-.43528 1.42437-.65292 2.23312-.65292 1.12392 0 2.04532.33091 2.76442.99271.719.66181 1.0785 1.50715 1.0785 2.53604 0 .54056-.1204 1.05313-.3612 1.53771-.241.48445-.6628.99646-1.2653 1.53604-.6122.53848-.9976.98529-1.1562 1.34039-.1588.3553-.2451.8807-.259 1.5763zm.73062 4.2756c-.29916 0-.55451-.1058-.76604-.3173-.21152-.2115-.31729-.4669-.31729-.766 0-.2992.10577-.5545.31729-.7661.21153-.2115.46688-.3173.76604-.3173.29922 0 .55452.1058.76602.3173.2116.2116.3173.4669.3173.7661 0 .2991-.1057.5545-.3173.766-.2115.2115-.4668.3173-.76602.3173z" fill="#1e1e1e"/></svg>