<svg fill="none" height="20" viewBox="0 0 20 20" width="20" xmlns="http://www.w3.org/2000/svg"><path d="m10.0325 14.6794c.224 0 .4145-.0786.5716-.2358.1571-.1574.2357-.3482.2357-.5723s-.0787-.4146-.2361-.5717c-.1574-.1569-.348-.2354-.5721-.2354-.224 0-.41456.0787-.57164.236-.15708.1574-.23563.3481-.23563.5721s.07869.4146.23605.5717c.15736.1569.34805.2354.57212.2354zm-.59025-2.9631h1.15225c.0107-.4657.0639-.7969.1594-.9936.0957-.1965.2851-.4347.5681-.7146.4916-.47759.8243-.87509.9984-1.19245.1741-.31723.2612-.65938.2612-1.02646 0-.70348-.2334-1.28813-.7002-1.75396-.4669-.4657-1.0663-.69854-1.7981-.69854-.61223 0-1.16001.16479-1.64334.49437-.48347.32959-.82938.77375-1.03771 1.3325l1.04958.45021c.15709-.41555.37237-.71632.64584-.90229.27347-.18583.58278-.27875.92793-.27875.4369 0 .7871.12444 1.0504.37333.2635.24903.3952.57007.3952.96313 0 .32486-.105.60826-.315.85021-.2099.24194-.4467.48632-.7106.73312-.4221.39639-.69481.74498-.81814 1.04588-.12347.3006-.18521.74-.18521 1.3179zm.55915 5.8671c-1.03943 0-2.02005-.1974-2.94186-.5921-.9218-.3948-1.72861-.9379-2.42041-1.6294-.69181-.6915-1.23521-1.498-1.63021-2.4194-.39486-.9214-.59229-1.9017-.59229-2.941 0-1.05335.19736-2.03745.59208-2.95231s.93785-1.7182 1.62937-2.41c.69153-.69181 1.49799-1.23521 2.41938-1.63021.92139-.39486 1.90174-.59229 2.94104-.59229 1.0533 0 2.0374.19736 2.9523.59208s1.7182.93785 2.41 1.62938c.6918.69152 1.2352 1.49451 1.6302 2.40895.3949.91445.5923 1.89827.5923 2.95146 0 1.03944-.1974 2.02004-.5921 2.94184s-.9378 1.7286-1.6294 2.4205c-.6915.6918-1.4945 1.2352-2.4089 1.6302-.9145.3948-1.8983.5923-2.9515.5923zm-.00144-1.0834c1.80554 0 3.34024-.6319 4.60414-1.8958s1.8959-2.7986 1.8959-4.6042c0-1.80553-.632-3.34026-1.8959-4.60415s-2.7986-1.89583-4.60414-1.89583c-1.80556 0-3.34028.63194-4.60417 1.89583s-1.89583 2.79862-1.89583 4.60415c0 1.8056.63194 3.3403 1.89583 4.6042s2.79861 1.8958 4.60417 1.8958z" fill="#1e1e1e"/></svg>