<svg fill="none" height="20" viewBox="0 0 20 20" width="20" xmlns="http://www.w3.org/2000/svg"><path d="m12.9358 13.3975.7742-.7741-3.1684-3.16838v-4.455h-1.08331v4.91979zm-2.9344 4.1859c-1.04457 0-2.02651-.1974-2.94582-.5921-.91916-.3948-1.72465-.9379-2.41645-1.6294-.69181-.6915-1.23521-1.4977-1.63021-2.4185-.39486-.9207-.59229-1.9046-.59229-2.9515 0-1.04695.19736-2.03132.59208-2.95313s.93785-1.72514 1.62937-2.41c.69153-.68486 1.49771-1.22479 2.41855-1.61979.92069-.39486 1.90451-.59229 2.95147-.59229 1.0469 0 2.0313.19902 2.9531.59708.922.39806 1.7239.93826 2.4058 1.62063.682.68236 1.2218 1.48479 1.6196 2.40729s.5967 1.90812.5967 2.95687c0 1.04454-.1974 2.02654-.5921 2.94584-.3947.9192-.9344 1.7246-1.6189 2.4165-.6846.6918-1.4885 1.2352-2.4117 1.6302-.9232.3948-1.9096.5923-2.9592.5923zm.0086-1.0834c1.7982 0 3.3294-.6354 4.5937-1.9062 1.2642-1.2709 1.8963-2.8054 1.8963-4.60378 0-1.79819-.6321-3.32944-1.8963-4.59375-1.2643-1.26417-2.7955-1.89625-4.5937-1.89625-1.79837 0-3.33296.63208-4.60379 1.89625-1.27083 1.26431-1.90625 2.79556-1.90625 4.59375 0 1.79838.63542 3.33288 1.90625 4.60378 1.27083 1.2708 2.80542 1.9062 4.60379 1.9062z" fill="#1e1e1e"/></svg>