<svg fill="none" height="20" viewBox="0 0 20 20" width="20" xmlns="http://www.w3.org/2000/svg"><path d="m4.75654 16.5834c-.37514 0-.69222-.1296-.95125-.3886s-.38854-.5761-.38854-.9512v-10.48712c0-.37514.12951-.69222.38854-.95125s.57611-.38854.95125-.38854h5.25146v1.08333h-5.25146c-.06417 0-.12292.02674-.17625.08021-.05347.05333-.08021.11208-.08021.17625v10.48712c0 .0641.02674.1229.08021.1762.05333.0535.11208.0802.17625.0802h5.25146v1.0834zm8.93586-3.6923-.7821-.7582 1.5914-1.5912h-6.42141v-1.08335h6.42141l-1.5914-1.59125.7821-.75812 2.891 2.89102z" fill="#1e1e1e"/></svg>