<svg fill="none" height="20" viewBox="0 0 20 20" width="20" xmlns="http://www.w3.org/2000/svg"><path d="m9.99996 16.439-.75313-.6811c-1.3675-1.2254-2.49597-2.271-3.38541-3.1368-.88945-.866-1.58792-1.6294-2.09542-2.2902-.5075-.66074-.85924-1.25984-1.05521-1.79734-.19611-.53736-.29416-1.08326-.29416-1.63771 0-1.11319.38486-2.05472 1.15458-2.82458.76986-.76972 1.71139-1.15458 2.82458-1.15458.68584 0 1.34556.16319 1.97917.48958s1.17528.79354 1.625 1.40146c.44974-.60792.99134-1.07507 1.62504-1.40146.6336-.32639 1.2933-.48958 1.9791-.48958 1.1132 0 2.0547.38486 2.8246 1.15458.7697.76986 1.1546 1.71139 1.1546 2.82458 0 .55445-.0946 1.09341-.2838 1.61688-.189.52361-.5372 1.11229-1.0447 1.76607-.5075.6539-1.2082 1.4207-2.1019 2.3006-.8936.8797-2.0408 1.9531-3.4415 3.2202zm0-1.4598c1.29164-1.1581 2.35414-2.1447 3.18754-2.96.8333-.8152 1.4965-1.5248 1.9895-2.12897.4931-.60417.8368-1.14104 1.0313-1.61063.1944-.46944.2917-.93069.2917-1.38375 0-.81944-.2778-1.50694-.8334-2.0625-.5555-.55555-1.243-.83333-2.0625-.83333-.4914 0-.9503.10333-1.3766.31-.4263.20681-.8509.53882-1.274.99604l-.7292.85417h-.44872l-.72916-.85417c-.42847-.46264-.86146-.79597-1.29896-1s-.88806-.30604-1.35167-.30604c-.81416 0-1.50034.27778-2.05854.83333-.55819.55556-.83729 1.24306-.83729 2.0625 0 .45306.09028.90389.27083 1.3525.18056.44875.51042.97174.98959 1.56896.47916.59719 1.13889 1.30559 1.97916 2.12499.84028.8195 1.92709 1.8317 3.26042 3.0369z" fill="#1e1e1e"/></svg>