<svg fill="none" height="20" viewBox="0 0 20 20" width="20" xmlns="http://www.w3.org/2000/svg"><path d="m4.41675 15.4038v-1.0832h.83979v-5.38475c0-1.17625.37021-2.20534 1.11062-3.08729.74028-.88194 1.68737-1.41535 2.84126-1.60021v-1.04c0-.21986.07687-.4068.23062-.56083.15375-.15389.34042-.23083.56-.23083.21976 0 .40676.07694.56106.23083.1544.15403.2316.34097.2316.56083v1.04c1.1539.18486 2.101.71827 2.8413 1.60021.7404.88195 1.1106 1.91104 1.1106 3.08729v5.38475h.8398v1.0832zm5.5775 2.3398c-.37 0-.68479-.1312-.94438-.3936-.25972-.2623-.38958-.5778-.38958-.9462h2.67961c0 .374-.1318.6908-.3954.9504-.2635.2596-.5803.3894-.95025.3894zm-3.65438-3.423h7.32043v-5.38475c0-1.02027-.3549-1.88534-1.0648-2.59521-.71-.71-1.5751-1.06499-2.5954-1.06499s-1.88543.35499-2.59544 1.06499c-.70986.70987-1.06479 1.57494-1.06479 2.59521z" fill="#1e1e1e"/></svg>