<svg fill="none" height="20" viewBox="0 0 20 20" width="20" xmlns="http://www.w3.org/2000/svg"><path d="m8.76434 17.5834-.44229-2.2469c-.36209-.1303-.72986-.2975-1.10334-.5015-.37333-.2041-.70798-.4387-1.00396-.7035l-2.16354.7227-1.23541-2.1458 1.7002-1.4953c-.03305-.1933-.06055-.3906-.0825-.592-.02194-.2014-.03291-.4058-.03291-.6132 0-.20177.01097-.40205.03291-.6008.02195-.19875.04945-.40548.0825-.6202l-1.7002-1.49521 1.23541-2.12979 2.15542.71479c.31208-.27028.64812-.50611 1.00812-.7075s.72646-.36993 1.09938-.50563l.45021-2.24687h2.47126l.4423 2.25479c.3889.14639.7539.31493 1.0952.50562.3414.1907.6708.42389.9881.69959l2.1875-.71479 1.2354 2.12979-1.7323 1.51916c.0438.20403.074.40278.0907.59625.0165.19334.0248.39098.0248.5929 0 .1965-.0097.3915-.029.585-.0192.1934-.0453.4001-.0783.6202l1.7162 1.5032-1.2356 2.1458-2.1794-.7308c-.3173.2756-.6494.5115-.996.7075-.3467.1961-.7091.362-1.0873.4977l-.4423 2.2548zm.86062-1.0834h.74204l.4038-2.0864c.5225-.0973 1.0049-.2725 1.4471-.5257.4423-.2533.8409-.5893 1.1956-1.0081l2.0079.6827.3831-.625-1.5993-1.4037c.0833-.2575.1479-.5108.1937-.7598.046-.2489.069-.5069.069-.774 0-.27248-.023-.53047-.069-.77394-.0458-.24361-.1104-.49153-.1937-.74375l1.6152-1.41979-.3829-.625-2.0321.67458c-.3067-.38139-.6998-.71069-1.1794-.98791-.4797-.27722-.9674-.45646-1.4631-.53771l-.3879-2.08646h-.75795l-.38 2.07854c-.52237.08653-1.00868.25771-1.45896.51354-.45042.25598-.85299.59598-1.20771 1.02l-2.00792-.67458-.38291.625 1.59125 1.40375c-.08334.22556-.14931.46945-.19792.73167s-.07292.53222-.07292.80996c0 .2725.02431.5373.07292.7942s.11194.5008.19.7317l-1.58333 1.4037.38291.625 2-.6666c.34403.408.74118.74 1.19146.996.45042.2558.94215.4324 1.47521.5296zm.34292-3.9166c.72112 0 1.33192-.2503 1.83252-.7509.5005-.5005.7508-1.1114.7508-1.8325 0-.72109-.2503-1.33192-.7508-1.83248-.5006-.50056-1.1114-.75083-1.83252-.75083-.71583 0-1.32535.25027-1.82854.75083-.5032.50056-.75479 1.11139-.75479 1.83248 0 .7211.25159 1.332.75479 1.8325.50319.5006 1.11271.7509 1.82854.7509z" fill="#1e1e1e"/></svg>