<svg fill="none" height="20" viewBox="0 0 20 20" width="20" xmlns="http://www.w3.org/2000/svg"><path d="m8.01667 12.6794c-1.29847 0-2.40313-.4554-3.31396-1.3661-.91069-.9108-1.36604-2.01525-1.36604-3.31331 0-1.29805.45535-2.4025 1.36604-3.31333.91083-.91069 2.01528-1.36604 3.31333-1.36604 1.29806 0 2.40246.45535 3.31336 1.36604.9107.91083 1.366 2.01549 1.366 3.31396 0 .54486-.0894 1.06583-.2683 1.56291-.179.49727-.4213.94607-.7269 1.34667l4.5867 4.5867c.1154.1152.1744.2394.1771.3725.0026.133-.0564.2599-.1771.3806s-.2497.181-.3871.181c-.1372 0-.2662-.0603-.3869-.181l-4.5866-4.5658c-.4167.3162-.8736.5611-1.37067.7348-.49708.1736-1.01007.2604-1.53896.2604zm-.00063-1.0832c1.00431 0 1.85473-.3483 2.55126-1.045.6967-.69649 1.045-1.5469 1.045-2.55121 0-1.0043-.3483-1.85472-1.045-2.55125-.69653-.69666-1.54695-1.045-2.55126-1.045-1.0043 0-1.85472.34834-2.55125 1.045-.69666.69653-1.045 1.54695-1.045 2.55125 0 1.00431.34834 1.85472 1.045 2.55121.69653.6967 1.54695 1.045 2.55125 1.045z" fill="#1e1e1e"/></svg>