<svg width="67" height="96" viewBox="0 0 67 96" fill="none" xmlns="http://www.w3.org/2000/svg">
<path d="M2 80C2 71.1635 9.16352 64 18 64H34V80C34 88.8365 26.8365 96 18 96C9.16352 96 2 88.8365 2 80Z" fill="#24CB71"/>
<path d="M34 0V32H50C58.8365 32 66 24.8365 66 16C66 7.16352 58.8365 0 50 0H34Z" fill="#FF7237"/>
<path d="M50 64C58.8366 64 66 56.8366 66 48C66 39.1634 58.8366 32 50 32C41.1634 32 34 39.1634 34 48C34 56.8366 41.1634 64 50 64Z" fill="#00B6FF"/>
<path d="M2 16C2 24.8365 9.16352 32 18 32H34V0H18C9.16352 0 2 7.16352 2 16Z" fill="#FF3737"/>
<path d="M2 48C2 56.8365 9.16352 64 18 64H34V32H18C9.16352 32 2 39.1635 2 48Z" fill="#874FFF"/>
</svg>
