<svg fill="none" height="104" viewBox="0 0 512 104" width="512" xmlns="http://www.w3.org/2000/svg"><g fill="#1e1e1e"><path d="m214.819 86.6731c-3.253 0-6.175-.6307-8.764-1.8915-2.523-1.2607-4.548-2.9532-6.075-5.0768-1.461-2.1899-2.191-4.712-2.191-7.5658 0-3.7159 1.195-6.7355 3.585-9.0587 2.39-2.3225 5.809-3.9149 10.258-4.7777l11.652-2.3895c2.324-.4643 3.918-1.1944 4.78-2.1899.863-.9955 1.295-2.4552 1.295-4.3798l1.196 11.6465-16.732 3.5839c-2.257.4643-4.017 1.294-5.278 2.4884-1.196 1.1951-1.793 2.8538-1.793 4.9774 0 2.1905.83 3.9487 2.49 5.2763 1.726 1.3271 4.05 1.991 6.971 1.991 2.39 0 4.581-.5312 6.573-1.593 2.058-1.0618 3.652-2.5221 4.781-4.3798 1.194-1.9246 1.792-4.1145 1.792-6.5703v-17.4204c0-2.3895-.863-4.2472-2.589-5.5749-1.66-1.3934-3.95-2.0904-6.872-2.0904-3.718 0-6.573.9291-8.565 2.7874s-3.153 4.4793-3.485 7.8643l-8.765-1.1945c.332-3.5176 1.395-6.5371 3.187-9.0586 1.793-2.5885 4.183-4.5794 7.171-5.9729 2.988-1.394 6.54-2.0904 10.656-2.0904 5.843 0 10.325 1.4929 13.445 4.4793s4.681 6.8356 4.681 11.5471v35.1398h-8.665v-6.4702c-.863 2.1899-2.622 4.0813-5.278 5.6743-2.59 1.5261-5.743 2.2894-9.461 2.2894z"/><path d="m127.174 85.1796v-49.6733h8.664v5.5749c.664-1.9246 2.125-3.5839 4.382-4.9774 2.257-1.394 4.88-2.0904 7.868-2.0904 2.921 0 5.61.6301 8.067 1.8909 2.456 1.2613 4.05 3.1528 4.78 5.6743.863-2.3225 2.457-4.1477 4.78-5.4748 2.391-1.394 5.047-2.0904 7.968-2.0904 5.046 0 8.897 1.4598 11.552 4.3798 2.656 2.9201 3.984 7.1673 3.984 12.7421v34.0443h-8.864v-32.8498c0-3.3186-.73-5.807-2.19-7.4663-1.395-1.7251-3.453-2.5879-6.175-2.5879-2.988 0-5.312 1.0618-6.972 3.1854-1.593 2.0573-2.39 5.0768-2.39 9.0587v30.6599h-8.864v-32.8498c0-3.3186-.73-5.807-2.19-7.4663-1.395-1.7251-3.453-2.5879-6.175-2.5879-2.988 0-5.312 1.0618-6.972 3.1854-1.593 2.0573-2.39 5.0768-2.39 9.0587v30.6599z"/><path d="m93.2821 103.098c-6.1746 0-11.1878-1.427-15.0387-4.2803-3.851-2.8538-6.307-6.8356-7.3693-11.9456l8.6643-1.8915c.7303 3.2517 2.2907 5.7739 4.6805 7.5658 2.3905 1.8583 5.4114 2.7874 9.0632 2.7874 4.3815 0 7.6679-1.1287 9.8589-3.3849 2.258-2.1899 3.387-5.4748 3.387-9.8552v-7.8636c-.996 2.4552-2.856 4.4461-5.578 5.9722-2.6554 1.5266-5.6431 2.29-8.963 2.29-4.3821 0-8.2324-.9955-11.5523-2.9864-3.3198-2.0573-5.9094-4.9111-7.7681-8.5613-1.8593-3.6497-2.7887-7.8642-2.7887-12.642 0-4.8447.9294-9.0919 2.7887-12.7421 1.8587-3.6503 4.4152-6.4702 7.6683-8.4612 3.3198-2.0572 7.2038-3.0859 11.6521-3.0859 3.3199 0 6.3407.7628 9.063 2.2894 2.788 1.4598 4.681 3.2849 5.677 5.4748v-6.2713h8.664v46.5874c0 4.3804-.863 8.1296-2.589 11.2492-1.727 3.1854-4.25 5.6074-7.569 7.2671-3.253 1.658-7.2373 2.488-11.9509 2.488zm-.1997-28.47c4.2498 0 7.6356-1.4935 10.1586-4.4799 2.59-2.9864 3.884-6.9345 3.884-11.8455 0-4.9774-1.294-8.9592-3.884-11.9456s-5.9756-4.4799-10.1586-4.4799c-4.2492 0-7.6682 1.4935-10.2578 4.4799-2.5228 2.9864-3.7842 6.9682-3.7842 11.9456 0 4.911 1.2945 8.8591 3.884 11.8455 2.5896 2.9864 5.9756 4.4799 10.158 4.4799z"/><path d="m51.9901 85.1215v-49.6152h8.8641v49.6733zm-.0992-55.986v-14.1355h9.0626v14.1355z"/><path d="m1.0835 85.1796v-70.1796h9.3615v70.1796zm1.89238-29.6645v-8.4618h38.14342v8.4618zm0-31.9544v-8.5607h41.82832v8.5607z"/><path d="m338.106 40.603c1.048-1.8702 2.71-3.3745 4.985-4.5126 2.729-1.394 5.761-2.0904 9.096-2.0904 5.76 0 10.157 1.4597 13.189 4.3798 3.031 2.9201 4.547 7.1673 4.547 12.7421v34.0443h-8.841v-32.8499c0-3.3186-1.615-5.8069-3.283-7.4662-1.591-1.7251-4.796-2.5879-7.903-2.5879-3.411 0-6.372 1.1546-8.267 3.2781-1.376 1.5558-2.741 3.9191-3.324 7.2571v32.3688h-8.864v-49.6733h8.665z"/><g clip-rule="evenodd" fill-rule="evenodd"><path d="m493.657 41.4662c2.223-4.5736 9.031-7.9115 16.037-7.9115v9.745c-5.823 0-13.609 2.0682-16.037 11.8902v30.1042h-8.958v-49.8168h8.958z"/><path d="m414.404 15.7h8.453v69.4736h-8.453v-6.8203c-3.021 4.4959-7.777 8.7003-14.976 8.7003-11.758 0-22.406-7.3431-22.406-26.1718 0-18.8286 10.648-26.6425 22.406-26.6425 6.743 0 11.845 3.9347 14.976 7.5987zm0 38.8509c-1.638-5.8291-6.002-12.4977-14.976-12.4977-8.291 0-13.758 8.8869-13.758 18.8286 0 9.9418 5.188 18.7345 13.758 18.7345 8.974 0 13.338-5.9786 14.976-12.3334z"/><path d="m471.275 62.4584h4.676c0-17.7721-7.408-28.413-22.731-28.413-13.609 0-22.886 11.2172-22.887 25.59 0 15.0992 7.727 27.8698 22.887 27.8698 15.993 0 21.515-10.4009 22.731-16.1031l-8.709-2.8812c-2.175 6.0113-4.828 11.2377-14.022 11.2377-8.381 0-12.874-7.7522-13.603-17.3002h26.658zm-4.724-6c-.354-9.0318-4.668-14.2893-13.331-14.2893-8.246 0-12.483 7.3736-13.477 14.2893z"/></g><path d="m307.907 85.1215v-49.6152h8.864v49.6733zm-.099-55.986v-14.1355h9.062v14.1355z"/><path d="m257 85.1796v-70.1796h9.362v70.1796zm1.892-29.6645v-8.4618h38.144v8.4618zm0-31.9544v-8.5607h41.829v8.5607z"/></g></svg>