<svg width="512" height="96" viewBox="0 0 512 96" fill="none" xmlns="http://www.w3.org/2000/svg">
<path d="M214.819 78.6731C211.566 78.6731 208.644 78.0424 206.055 76.7816C203.532 75.5209 201.507 73.8284 199.98 71.7048C198.519 69.5149 197.789 66.9928 197.789 64.139C197.789 60.4231 198.984 57.4035 201.374 55.0803C203.764 52.7578 207.183 51.1654 211.632 50.3026L223.284 47.9131C225.608 47.4488 227.202 46.7187 228.064 45.7232C228.927 44.7277 229.359 43.268 229.359 41.3434L230.555 52.9899L213.823 56.5738C211.566 57.0381 209.806 57.8678 208.545 59.0622C207.349 60.2573 206.752 61.916 206.752 64.0396C206.752 66.2301 207.582 67.9883 209.242 69.3159C210.968 70.643 213.292 71.3069 216.213 71.3069C218.603 71.3069 220.794 70.7757 222.786 69.7139C224.844 68.6521 226.438 67.1918 227.567 65.3341C228.761 63.4095 229.359 61.2196 229.359 58.7638V41.3434C229.359 38.9539 228.496 37.0962 226.77 35.7685C225.11 34.3751 222.82 33.6781 219.898 33.6781C216.18 33.6781 213.325 34.6072 211.333 36.4655C209.341 38.3238 208.18 40.9448 207.848 44.3298L199.083 43.1353C199.415 39.6177 200.478 36.5982 202.27 34.0767C204.063 31.4882 206.453 29.4973 209.441 28.1038C212.429 26.7098 215.981 26.0134 220.097 26.0134C225.94 26.0134 230.422 27.5063 233.542 30.4927C236.662 33.4791 238.223 37.3283 238.223 42.0398V77.1796H229.558V70.7094C228.695 72.8993 226.936 74.7907 224.28 76.3837C221.69 77.9098 218.537 78.6731 214.819 78.6731Z" fill="#1E1E1E"/>
<path d="M127.174 77.1796V27.5063H135.838V33.0812C136.502 31.1566 137.963 29.4973 140.22 28.1038C142.477 26.7098 145.1 26.0134 148.088 26.0134C151.009 26.0134 153.698 26.6435 156.155 27.9043C158.611 29.1656 160.205 31.0571 160.935 33.5786C161.798 31.2561 163.392 29.4309 165.715 28.1038C168.106 26.7098 170.762 26.0134 173.683 26.0134C178.729 26.0134 182.58 27.4732 185.235 30.3932C187.891 33.3133 189.219 37.5605 189.219 43.1353V77.1796H180.355V44.3298C180.355 41.0112 179.625 38.5228 178.165 36.8635C176.77 35.1384 174.712 34.2756 171.99 34.2756C169.002 34.2756 166.678 35.3374 165.018 37.461C163.425 39.5183 162.628 42.5378 162.628 46.5197V77.1796H153.764V44.3298C153.764 41.0112 153.034 38.5228 151.574 36.8635C150.179 35.1384 148.121 34.2756 145.399 34.2756C142.411 34.2756 140.087 35.3374 138.427 37.461C136.834 39.5183 136.037 42.5378 136.037 46.5197V77.1796H127.174Z" fill="#1E1E1E"/>
<path d="M93.2821 95.098C87.1075 95.098 82.0943 93.6714 78.2434 90.8177C74.3924 87.9639 71.9364 83.9821 70.8741 78.8721L79.5384 76.9806C80.2687 80.2323 81.8291 82.7545 84.2189 84.5464C86.6094 86.4047 89.6303 87.3338 93.2821 87.3338C97.6636 87.3338 100.95 86.2051 103.141 83.9489C105.399 81.759 106.528 78.4741 106.528 74.0937V66.2301C105.532 68.6853 103.672 70.6762 100.95 72.2023C98.2946 73.7289 95.3069 74.4923 91.987 74.4923C87.6049 74.4923 83.7546 73.4968 80.4347 71.5059C77.1149 69.4486 74.5253 66.5948 72.6666 62.9446C70.8073 59.2949 69.8779 55.0804 69.8779 50.3026C69.8779 45.4579 70.8073 41.2107 72.6666 37.5605C74.5253 33.9102 77.0818 31.0903 80.3349 29.0993C83.6547 27.0421 87.5387 26.0134 91.987 26.0134C95.3069 26.0134 98.3277 26.7762 101.05 28.3028C103.838 29.7626 105.731 31.5877 106.727 33.7776V27.5063H115.391V74.0937C115.391 78.4741 114.528 82.2233 112.802 85.3429C111.075 88.5283 108.552 90.9503 105.233 92.6096C101.98 94.2684 97.9957 95.098 93.2821 95.098ZM93.0824 66.628C97.3322 66.628 100.718 65.1345 103.241 62.1481C105.831 59.1617 107.125 55.2136 107.125 50.3026C107.125 45.3252 105.831 41.3434 103.241 38.357C100.651 35.3706 97.2654 33.8771 93.0824 33.8771C88.8332 33.8771 85.4142 35.3706 82.8246 38.357C80.3018 41.3434 79.0404 45.3252 79.0404 50.3026C79.0404 55.2136 80.3349 59.1617 82.9244 62.1481C85.514 65.1345 88.9 66.628 93.0824 66.628Z" fill="#1E1E1E"/>
<path d="M51.9901 77.1215V27.5063H60.8542V77.1796L51.9901 77.1215ZM51.8909 21.1355V7H60.9535V21.1355H51.8909Z" fill="#1E1E1E"/>
<path d="M1.0835 77.1796V7H10.445V77.1796H1.0835ZM2.97588 47.5151V39.0533H41.1193V47.5151H2.97588ZM2.97588 15.5607V7H44.8042V15.5607H2.97588Z" fill="#1E1E1E"/>
<path d="M338.106 32.603C339.154 30.7328 340.816 29.2285 343.091 28.0904C345.82 26.6964 348.852 26 352.187 26C357.947 26 362.344 27.4597 365.376 30.3798C368.407 33.2999 369.923 37.5471 369.923 43.1219V77.1662H361.082V44.3163C361.082 40.9977 359.467 38.5094 357.799 36.8501C356.208 35.125 353.003 34.2622 349.896 34.2622C346.485 34.2622 343.524 35.4168 341.629 37.5403C340.253 39.0961 338.888 41.4594 338.305 44.7974V77.1662H329.441V27.4929H338.106V32.603Z" fill="#1E1E1E"/>
<path fill-rule="evenodd" clip-rule="evenodd" d="M493.657 33.4662C495.88 28.8926 502.688 25.5547 509.694 25.5547V35.2997C503.871 35.2997 496.085 37.3679 493.657 47.1899V77.2941H484.699V27.4773H493.657V33.4662Z" fill="#1E1E1E"/>
<path fill-rule="evenodd" clip-rule="evenodd" d="M414.404 7.69995H422.857V77.1736H414.404V70.3533C411.383 74.8492 406.627 79.0536 399.428 79.0536C387.67 79.0536 377.022 71.7105 377.022 52.8818C377.022 34.0532 387.67 26.2393 399.428 26.2393C406.171 26.2393 411.273 30.174 414.404 33.838V7.69995ZM414.404 46.5509C412.766 40.7218 408.402 34.0532 399.428 34.0532C391.137 34.0532 385.67 42.9401 385.67 52.8818C385.67 62.8236 390.858 71.6163 399.428 71.6163C408.402 71.6163 412.766 65.6377 414.404 59.2829V46.5509Z" fill="#1E1E1E"/>
<path fill-rule="evenodd" clip-rule="evenodd" d="M471.275 54.4584H475.951C475.951 36.6863 468.543 26.0454 453.22 26.0454C439.611 26.0454 430.334 37.2626 430.333 51.6354C430.333 66.7346 438.06 79.5052 453.22 79.5052C469.213 79.5052 474.735 69.1043 475.951 63.4021L467.242 60.5209C465.067 66.5322 462.414 71.7586 453.22 71.7586C444.839 71.7586 440.346 64.0064 439.617 54.4584H466.275H471.275ZM466.551 48.4584C466.197 39.4266 461.883 34.1691 453.22 34.1691C444.974 34.1691 440.737 41.5427 439.743 48.4584H466.551Z" fill="#1E1E1E"/>
<path d="M307.907 77.1215V27.5063H316.771V77.1796L307.907 77.1215ZM307.808 21.1355V7H316.87V21.1355H307.808Z" fill="#1E1E1E"/>
<path d="M257 77.1796V7H266.362V77.1796H257ZM258.892 47.5151V39.0533H297.036V47.5151H258.892ZM258.892 15.5607V7H300.721V15.5607H258.892Z" fill="#1E1E1E"/>
</svg>
