<svg fill="none" height="96" viewBox="0 0 147 96" width="147" xmlns="http://www.w3.org/2000/svg"><g fill="#1e1e1e"><path d="m38.1081 20h25.8919v6.0156h-25.8919zm-38.1081 6.0156v-6.0156h21.2973l24.973 49.9844h17.7297v6.0156h-21.2973l-24.973-49.9844z"/><path clip-rule="evenodd" d="m88.2059 32.9658c-4.9401-3.1991-8.2059-8.7376-8.2059-15.0344 0-9.90324 8.0782-17.9314 18.0431-17.9314h30.9139c9.965 0 18.043 8.02816 18.043 17.9314 0 6.2968-3.266 11.8353-8.206 15.0344 4.94 3.199 8.206 8.7377 8.206 15.0344 0 9.9032-8.078 17.9313-18.043 17.9313h-.329c-4.711 0-8.999-1.7939-12.213-4.7318v16.7054c0 10.0139-8.255 18.0949-18.2901 18.0949-9.9445 0-18.1249-8.0078-18.1249-17.9314 0-6.2966 3.2657-11.8352 8.2056-15.0342-4.9399-3.199-8.2056-8.7376-8.2056-15.0342 0-6.2967 3.2658-11.8354 8.2059-15.0344zm28.2091 15.0344c0 6.7032 5.468 12.1371 12.213 12.1371h.329c6.745 0 12.213-5.4339 12.213-12.1371s-5.468-12.1372-12.213-12.1372h-.329c-6.745 0-12.213 5.434-12.213 12.1372zm-5.83-12.1372h-12.5419c-6.7449 0-12.2127 5.434-12.2127 12.1372 0 6.6896 5.4457 12.115 12.1717 12.1371h.0191 12.5638zm-12.5419 30.0685c-.0137 0-.0273 0-.041 0-6.726.0219-12.1717 5.4475-12.1717 12.1371 0 6.6829 5.5291 12.1372 12.2945 12.1372 6.8561 0 12.4601-5.5274 12.4601-12.3007v-11.9736zm12.5419-35.863h-12.5419c-6.7449 0-12.2127-5.4339-12.2127-12.1371s5.4678-12.13716 12.2127-12.13716h12.5419zm18.372 0h-12.542v-24.27426h12.542c6.745 0 12.213 5.43396 12.213 12.13716s-5.468 12.1371-12.213 12.1371z" fill-rule="evenodd"/></g></svg>